HIERARCHY
ROOT pelvis
{
  OFFSET 0 100 0
  CHANNELS 6 Xposition Yposition Zposition Zrotation Xrotation Yrotation
  JOINT pelvis_right_femur
  {
    OFFSET -10.78128 -3.44521 -0.5502486
    CHANNELS 3 Zrotation Xrotation Yrotation
    JOINT right_femur_tibia
    {
      OFFSET -0.8047443 -44.0398 -0.1307829
      CHANNELS 3 Zrotation Xrotation Yrotation
      JOINT right_tibia_foot
      {
        OFFSET 3.006224 -47.83518 -5
        CHANNELS 3 Zrotation Xrotation Yrotation
        End Site
        {
          OFFSET 0 -5 15
        }
      }
    }
  }
  JOINT pelvis_left_femur
  {
    OFFSET 10.78128 -3.44521 -0.5502486
    CHANNELS 3 Zrotation Xrotation Yrotation
    JOINT left_femur_tibia
    {
      OFFSET 0.8047443 -44.0398 -0.1307829
      CHANNELS 3 Zrotation Xrotation Yrotation
      JOINT left_tibia_foot
      {
        OFFSET -4.370144 -48.10324 -4.275266
        CHANNELS 3 Zrotation Xrotation Yrotation
        End Site
        {
          OFFSET 0 -5 15
        }
      }
    }
  }
  JOINT pelvis_spine1
  {
    OFFSET 0 6.468898 -3.129235
    CHANNELS 3 Zrotation Xrotation Yrotation
    JOINT spine1
    {
      OFFSET 0 23.15396 4.99043
      CHANNELS 3 Zrotation Xrotation Yrotation
      JOINT spine2
      {
        OFFSET 0 20.79997 -5.064912
        CHANNELS 3 Zrotation Xrotation Yrotation
        JOINT neck
        {
          OFFSET 0 14.38658 9.616178
          CHANNELS 3 Zrotation Xrotation Yrotation
          End Site
          {
            OFFSET 0 20 0
          }
        }
      }
      JOINT right_manubrium
      {
        OFFSET -5.722621 16.35077 3.967754
        CHANNELS 3 Zrotation Xrotation Yrotation
        JOINT right_clavicle
        {
          OFFSET -13.16364 1.694482 -4.693211
          CHANNELS 3 Zrotation Xrotation Yrotation
          JOINT right_humerus
          {
            OFFSET -28.5034 -0.3100689 -2.792744
            CHANNELS 3 Zrotation Xrotation Yrotation
            JOINT right_radius
            {
              OFFSET -25.15693 0.02248979 -1.271978
              CHANNELS 3 Zrotation Xrotation Yrotation
              End Site
              {
                OFFSET -15 0 0
              }
            }
          }
        }
      }
      JOINT left_manubrium
      {
        OFFSET 5.722621 16.35077 3.967754
        CHANNELS 3 Zrotation Xrotation Yrotation
        JOINT left_clavicle
        {
          OFFSET 13.16364 1.694482 -4.693211
          CHANNELS 3 Zrotation Xrotation Yrotation
          JOINT left_humerus
          {
            OFFSET 29.39168 -1.063119 -2.237045
            CHANNELS 3 Zrotation Xrotation Yrotation
            JOINT left_radius
            {
              OFFSET 24.59957 -0.9528479 0.9047498
              CHANNELS 3 Zrotation Xrotation Yrotation
              End Site
              {
                OFFSET 15 -0 -0
              }
            }
          }
        }
      }
    }
  }
}
MOTION
Frames: 21
Frame Time: 0.0416666666667
-443.2671 108.969 2974.843 -3.976588 -5.901695 -37.51534 5.429454 11.1817 2.59457 -0 7.78984 -0 -5.927448 -11.08687 -1.852564 2.458659 -22.6309 -1.882602 -0 36.06884 -0 -3.116273 -5.392568 17.83295 1.565512 -2.317084 7.914618 -1.417984 14.34123 -3.957763 2.174147 19.88851 1.909968 -0.8298775 -18.33751 5.657812 -4.470009 -29.11059 10.20446 90.91935 15.49391 -9.215951 -0 0 27.44004 -22.0654 14.8943 16.09931 1.66855 -19.5691 -7.124128 -95.27875 16.85587 36.59151 0 0 -13.94493 -0.7866582 9.618258 18.93627
-446.3037 107.8718 2979.642 -4.245038 -5.206291 -38.16463 5.580026 14.173 2.603526 -0 8.249562 -0 -5.425664 -13.53638 -1.558956 3.885216 -25.01481 -1.20179 -0 25.31939 -0 -2.911361 -4.939092 18.37107 1.567657 -2.699787 8.380927 -1.231296 14.57691 -4.109599 1.95479 19.12285 1.525097 -1.036303 -18.41858 5.168447 -4.340647 -30.71928 10.56711 89.72918 15.72392 -7.542199 -0 0 30.48485 -22.6662 16.10436 17.3025 1.561174 -19.03153 -6.678216 -95.57046 15.25181 38.73773 0 0 -13.19043 -0.5919584 9.972174 17.8387
-449.4286 106.6251 2984.791 -4.238053 -4.538429 -38.81784 5.162769 16.86143 2.320439 -0 9.615248 -0 -4.904236 -15.10683 -1.014289 4.149781 -26.00074 -1.446255 -0 17.59434 -0 -3.161101 -4.722086 18.562 1.485457 -3.016409 8.677636 -1.019222 14.59683 -4.246823 1.78264 18.59219 1.246267 -1.217766 -18.58549 4.831607 -4.278951 -31.94217 10.80718 88.71409 15.88316 -6.109385 -0 0 32.80052 -23.18429 16.87143 18.29811 1.566446 -18.55176 -6.154666 -95.73838 14.15198 40.19329 0 0 -12.44995 -0.343331 10.34613 16.7386
-452.7092 105.4964 2990.35 -4.044537 -4.281909 -39.45326 4.115919 19.21004 1.827437 -0 12.32993 -0 -4.725782 -14.97141 -0.3402105 3.162661 -25.6358 -2.722539 -0 13.58202 -0 -3.657286 -4.920231 18.71052 1.373168 -3.212766 8.800843 -0.8399203 14.49739 -4.345785 1.685552 18.34057 1.097361 -1.341058 -18.80606 4.672996 -4.313432 -32.66672 10.91735 88.07925 15.95341 -5.156535 -0 0 34.11698 -23.54258 17.14467 18.92441 1.631014 -18.20784 -5.702972 -95.83332 13.60572 40.92974 0 0 -11.79049 -0.1048074 10.66306 15.84644
-456.1727 104.6937 2996.284 -3.79608 -4.585146 -40.0046 2.621681 20.94534 1.282451 -0 16.6818 -0 -5.079621 -12.57935 0.3323804 1.262159 -24.07483 -4.735544 -0 12.81475 -0 -4.071549 -5.532837 19.03635 1.274906 -3.268563 8.780575 -0.7261428 14.36734 -4.395811 1.66775 18.344 1.068121 -1.390527 -19.03852 4.672962 -4.429492 -32.90343 10.92236 87.8782 15.94202 -4.749096 -0 0 34.44734 -23.70958 17.00769 19.13579 1.710658 -18.02032 -5.413656 -95.90214 13.53784 41.05737 0 0 -11.23745 0.08065305 10.89629 15.25877
-459.7898 104.3643 3002.468 -3.579537 -5.343336 -40.36864 1.004596 21.60798 0.8390613 -0 22.73592 -0 -5.900517 -7.901976 0.9303376 -1.00964 -21.52167 -6.944197 -0 14.16738 -0 -4.050605 -6.445601 19.56423 1.20605 -3.20218 8.659787 -0.6803556 14.24746 -4.398027 1.712783 18.5372 1.133457 -1.368751 -19.25193 4.789039 -4.587672 -32.74519 10.85817 88.03025 15.86992 -4.801955 -0 0 34.00079 -23.7093 16.59377 18.99879 1.788206 -17.96632 -5.296453 -95.96525 13.82059 40.73666 0 0 -10.80256 0.20138 11.04604 14.96663
-463.4693 104.5847 3008.703 -3.455354 -6.302918 -40.44227 -0.3459031 20.68543 0.5502142 -0 30.22272 -0 -6.960895 -1.60515 1.38842 -3.117303 -18.15707 -8.804911 -0 16.29631 -0 -3.423102 -7.524989 20.12848 1.162707 -3.047391 8.474316 -0.6904337 14.14208 -4.359155 1.798945 18.85421 1.269457 -1.287549 -19.42844 4.981103 -4.749506 -32.29567 10.75343 88.41667 15.75878 -5.187028 -0 0 33.01444 -23.58716 16.01603 18.61641 1.864065 -18.01239 -5.319643 -96.01993 14.34247 40.10022 0 0 -10.50037 0.2616987 11.11761 14.92221
-467.0801 105.3369 3014.762 -3.501044 -7.183061 -40.16795 -1.095902 17.81319 0.3457737 -0 38.35836 -0 -8.014301 4.973871 1.596003 -4.661644 -14.11438 -9.995181 -0 17.9806 -0 -2.363374 -8.690519 20.47399 1.13714 -2.834556 8.245828 -0.7429383 14.04491 -4.288784 1.909508 19.24789 1.457232 -1.161333 -19.55556 5.22101 -4.888053 -31.6304 10.62481 88.94808 15.62588 -5.809548 -0 0 31.65764 -23.3794 15.35204 18.07162 1.941374 -18.13762 -5.450247 -96.04774 15.03095 39.22584 0 0 -10.35818 0.2684901 11.1163 15.08521
-470.4992 106.4874 3020.458 -3.796791 -7.772538 -39.56885 -1.140321 12.96748 0.1270116 -0 45.73988 -0 -8.911236 10.25503 1.448529 -5.453452 -9.522445 -10.54201 -0 18.4243 -0 -1.30548 -9.921375 20.43125 1.125408 -2.587986 7.985343 -0.8267802 13.95334 -4.200184 2.033604 19.68676 1.680018 -1.006216 -19.61991 5.489621 -4.986152 -30.79762 10.48069 89.57673 15.48528 -6.62329 -0 0 30.02834 -23.1055 14.65885 17.41766 2.01804 -18.34043 -5.668785 -96.0164 15.84033 38.14805 0 0 -10.42552 0.2278545 11.04829 15.43344
-473.6603 107.7866 3025.698 -4.332132 -7.973043 -38.75506 -0.6717333 6.546824 -0.139762 -0 50.53413 -0 -9.607793 13.09391 0.9544688 -5.533616 -4.607949 -10.7407 -0 17.45021 -0 -0.6430972 -11.2161 20.02049 1.128038 -2.330585 7.699901 -0.9324897 13.86977 -4.110099 2.163369 20.14549 1.920542 -0.8411708 -19.606 5.771635 -5.033679 -29.83407 10.32428 90.28199 15.34976 -7.613487 -0 0 28.1869 -22.77315 13.98614 16.69045 2.085786 -18.6346 -5.966274 -95.88304 16.73415 36.88208 0 0 -10.77389 0.1456281 10.91932 15.95874
-476.5733 108.9123 3030.499 -4.915395 -7.774193 -37.88898 -0.03792781 -0.7020763 -0.4601422 -0 51.05245 -0 -9.997104 13.16677 0.2101089 -5.136399 0.2307427 -10.86983 -0 15.46091 -0 -0.532266 -12.60581 19.33966 1.144615 -2.084406 7.396526 -1.05202 13.78814 -4.031435 2.29239 20.6039 2.16443 -0.6856354 -19.50142 6.056345 -5.028568 -28.77219 10.15073 91.04648 15.22969 -8.76501 -0 0 26.18636 -22.38547 13.36565 15.92053 2.13804 -19.03272 -6.329521 -95.61076 17.68636 35.44098 0 0 -11.46389 0.02602547 10.72886 16.66136
-479.3125 109.5525 3034.969 -5.208484 -7.216878 -37.12171 0.4609651 -7.900764 -0.9200812 -0 46.47156 -0 -9.830549 10.93335 -0.689095 -4.627908 4.521254 -10.95015 -0 13.14326 -0 -0.8805654 -14.20978 18.41398 1.163216 -1.861034 7.078835 -1.178635 13.66903 -3.96053 2.417651 21.05994 2.408487 -0.5526443 -19.30752 6.345671 -4.979137 -27.62969 9.940125 91.83009 15.12886 -10.02488 -0 0 24.08223 -21.94499 12.77907 15.13353 2.186539 -19.51592 -6.718054 -95.19723 18.70917 33.83308 0 0 -12.47059 -0.1297201 10.46994 17.53502
-481.9911 109.4975 3039.259 -4.918962 -6.403851 -36.53985 0.671457 -14.37192 -1.68145 -0 37.3543 -0 -9.047117 7.600442 -1.551938 -4.39205 7.983127 -10.79735 -0 11.12257 -0 -1.307167 -16.16084 17.28742 1.15735 -1.652453 6.739945 -1.302283 13.43869 -3.879486 2.542041 21.53729 2.658474 -0.447052 -19.04765 6.655587 -4.901963 -26.40486 9.66251 92.56629 15.04255 -11.2931 -0 0 21.92801 -21.45239 12.15759 14.34231 2.266528 -20.01907 -7.057058 -94.6806 19.86215 32.05041 0 0 -13.63924 -0.3150838 10.15306 18.53018
-484.7401 108.715 3043.531 -4.009953 -5.470524 -36.14497 0.6242219 -19.88111 -2.77138 -0 25.72488 -0 -8.004504 4.850035 -2.092128 -4.613593 10.68537 -10.29368 -0 9.900236 -0 -1.329871 -18.40181 16.13472 1.103372 -1.442681 6.36833 -1.404818 13.04323 -3.781965 2.670684 22.0596 2.910309 -0.3731796 -18.75916 6.99657 -4.813053 -25.10774 9.304908 93.19517 14.9657 -12.46691 -0 0 19.78142 -20.90954 11.45416 13.55136 2.409264 -20.46624 -7.2739 -94.10053 21.18412 30.08913 0 0 -14.76994 -0.5055251 9.832732 19.53099
-487.6999 107.3783 3047.953 -2.723852 -4.484746 -35.85596 0.5286417 -24.38888 -3.925131 -0 14.37472 -0 -7.142507 3.880048 -2.206461 -5.151117 12.89137 -9.522634 -0 9.954302 -0 -0.9539316 -20.56677 15.06123 1.000151 -1.229055 5.967823 -1.467671 12.50083 -3.684785 2.803217 22.61466 3.142044 -0.3366713 -18.47465 7.353654 -4.720479 -23.79578 8.891162 93.68997 14.90364 -13.48265 -0 0 17.72749 -20.33225 10.705 12.77819 2.611757 -20.81647 -7.343598 -93.47399 22.61458 28.00469 0 0 -15.74069 -0.6662133 9.584005 20.39946
-491.015 105.8194 3052.689 -1.471529 -3.47273 -35.55163 0.7153783 -27.54759 -4.703328 -0 5.838293 -0 -6.649112 4.70611 -2.075143 -5.654794 14.80902 -8.650976 -0 11.75452 -0 -0.8387946 -21.98438 13.91109 0.8687624 -1.02607 5.569013 -1.485618 11.89444 -3.609247 2.93112 23.15137 3.328272 -0.3365734 -18.21615 7.690547 -4.628124 -22.57323 8.472908 94.04882 14.86722 -14.30675 -0 0 15.89335 -19.76094 10.00386 12.06619 2.839815 -21.06455 -7.293483 -92.82803 24.00176 25.95101 0 0 -16.51495 -0.7750114 9.449252 21.04545
-494.791 104.4386 3057.85 -0.7106557 -2.52378 -35.1631 1.553071 -28.73404 -4.655548 -0 1.734253 -0 -6.43393 6.444274 -2.013317 -5.756506 16.38428 -7.787762 -0 15.78762 -0 -1.662639 -21.78084 12.47616 0.7401993 -0.8556629 5.221304 -1.470562 11.33568 -3.564007 3.040654 23.60326 3.456067 -0.3603014 -18.00397 7.967008 -4.544162 -21.56401 8.110855 94.28309 14.85859 -14.91692 -0 0 14.42636 -19.26004 9.442028 11.47741 3.048498 -21.22185 -7.181479 -92.23314 25.16608 24.16461 0 0 -17.08446 -0.8315577 9.417003 21.45135
-499.0108 103.5905 3063.423 -0.7367836 -1.820532 -34.77054 3.167109 -27.62679 -3.576474 -0 2.079966 -0 -6.233461 7.997147 -2.262804 -5.271568 17.13618 -6.959842 -0 22.4174 -0 -3.321507 -19.346 10.95354 0.6416291 -0.7361977 4.972925 -1.443105 10.9279 -3.543712 3.117767 23.91605 3.52983 -0.3864485 -17.86307 8.153814 -4.481881 -20.87496 7.859154 94.41134 14.86574 -15.29747 -0 0 13.44605 -18.90373 9.070684 11.07366 3.20115 -21.30208 -7.069214 -91.79294 25.96365 22.89237 0 0 -17.43121 -0.8493152 9.443051 21.64766
-503.4964 103.4767 3069.246 -1.473893 -1.595728 -34.59953 5.139212 -24.56148 -1.806068 -0 5.060129 -0 -5.904666 8.588132 -2.797252 -4.364171 16.34195 -6.181624 -0 31.47635 -0 -4.930216 -15.06864 9.97552 0.588698 -0.6772063 4.855015 -1.420824 10.7398 -3.537558 3.152354 24.06102 3.563175 -0.3940771 -17.81749 8.237242 -4.453291 -20.57113 7.754384 94.45096 14.87117 -15.43969 -0 0 13.01597 -18.75215 8.902028 10.89893 3.277917 -21.31424 -7.000685 -91.60114 26.31527 22.31192 0 0 -17.52739 -0.8428095 9.485071 21.67285
-507.9972 104.1066 3075.07 -2.516378 -1.968642 -34.86575 6.742069 -20.22479 -0.0375723 -0 8.246194 -0 -5.603944 7.880064 -3.332652 -3.442482 13.55398 -5.515791 -0 41.93989 -0 -5.790573 -10.36211 9.961989 0.5882349 -0.6828657 4.880706 -1.413045 10.79898 -3.53894 3.140229 24.02826 3.564053 -0.3741316 -17.87719 8.213646 -4.465056 -20.67702 7.809675 94.41281 14.86471 -15.3435 -0 0 13.15673 -18.83149 8.934412 10.97103 3.271104 -21.26534 -6.99604 -91.70134 26.19505 22.50025 0 0 -17.36434 -0.8203896 9.519703 21.55452
-512.3163 105.3239 3080.666 -3.397071 -2.815464 -35.60012 7.458322 -15.14607 1.203803 -0 10.11517 -0 -5.53001 5.836309 -3.570703 -2.833507 8.830791 -5.05267 -0 52.04298 -0 -5.954051 -6.709895 10.77962 0.6452045 -0.7577183 5.053795 -1.422909 11.09751 -3.549364 3.082994 23.81301 3.523545 -0.3371716 -18.02482 8.081742 -4.51747 -21.19088 8.012899 94.29854 14.84954 -15.01731 -0 0 13.87926 -19.1251 9.176045 11.28203 3.176323 -21.16509 -7.055911 -92.07342 25.60907 23.44952 0 0 -16.97977 -0.7886674 9.535881 21.32166
